<svg xmlns="http://www.w3.org/2000/svg" xmlns:xlink="http://www.w3.org/1999/xlink" viewBox="0 0 336.1 282.47"><defs><style>.cls-1{fill:#fff;}.cls-2{fill:url(#linear-gradient);}.cls-3{fill:url(#linear-gradient-2);}.cls-4{fill:url(#linear-gradient-3);}</style><linearGradient id="linear-gradient" x1="123.2" y1="22.75" x2="229.07" y2="184.74" gradientUnits="userSpaceOnUse"><stop offset="0" stop-color="#00bdd1"/><stop offset="0.47" stop-color="#3841b8"/><stop offset="0.89" stop-color="#7f0cdb"/></linearGradient><linearGradient id="linear-gradient-2" x1="122.68" y1="23.08" x2="228.55" y2="185.08" xlink:href="#linear-gradient"/><linearGradient id="linear-gradient-3" x1="109.14" y1="31.93" x2="215.01" y2="193.93" xlink:href="#linear-gradient"/></defs><g id="Layer_2" data-name="Layer 2"><g id="Layer_1-2" data-name="Layer 1"><path class="cls-1" d="M79.86,272.72h-5.7c-.93,0-1.52.17-1.75.52a3.16,3.16,0,0,0-.2,1.42,1,1,0,0,0,.53.9,2.93,2.93,0,0,0,1.42.26h2.35a4.31,4.31,0,0,1,2.42.6,1.93,1.93,0,0,1,.9,1.7v1.76a2,2,0,0,1-.92,1.77,4.57,4.57,0,0,1-2.54.61H70v-1.63h5.7c1,0,1.53-.18,1.77-.56a4.31,4.31,0,0,0,.15-1.5c0-.76-.62-1.14-1.85-1.14H73.42a4.63,4.63,0,0,1-2.4-.56,1.87,1.87,0,0,1-1-1.68v-1.74a2.11,2.11,0,0,1,1.12-1.87,4.24,4.24,0,0,1,2.26-.49h6.49Z"/><path class="cls-1" d="M106.46,279.73q0,2.53-3.65,2.53H99.44a5,5,0,0,1-2.63-.55,2.17,2.17,0,0,1-1.06-2v-6.1a2.24,2.24,0,0,1,1.08-2,4.63,4.63,0,0,1,2.61-.58h3.39q3.63,0,3.63,2.56Zm-2.19-.4v-5.21a1.2,1.2,0,0,0-.46-1.09,2.74,2.74,0,0,0-1.51-.31H100a2.78,2.78,0,0,0-1.53.31,1.2,1.2,0,0,0-.46,1.09v5.16a1.24,1.24,0,0,0,.5,1.06,2.69,2.69,0,0,0,1.49.29h2.33a2.87,2.87,0,0,0,1.5-.29A1.09,1.09,0,0,0,104.27,279.33Z"/><path class="cls-1" d="M132.11,277.5H124.4v4.76h-2.22v-8.88a2,2,0,0,1,1-1.75,4.59,4.59,0,0,1,2.44-.52h6.46v1.63h-5.85c-1.24,0-1.86.39-1.86,1.16v2h7.71Z"/><path class="cls-1" d="M156.87,272.69h-3.8v9.57h-2.22v-9.57h-3.78v-1.63h9.8Z"/><path class="cls-1" d="M188,271.1l-3.08,10.18a1.62,1.62,0,0,1-1.74,1.19,1.57,1.57,0,0,1-1.73-1.18l-2.2-7.9-2.13,7.9a1.58,1.58,0,0,1-1.74,1.18,1.62,1.62,0,0,1-1.74-1.19l-3.06-10.18h2.17l2.7,8.87,2.13-7.74a1.57,1.57,0,0,1,1.69-1.25,1.61,1.61,0,0,1,1.72,1.25l2.12,7.74,2.71-8.87Z"/><path class="cls-1" d="M214.65,282.26h-2.38l-1.33-2.73h-6l-1.33,2.73H201.2l5-10.15a1.8,1.8,0,0,1,1.76-1,1.82,1.82,0,0,1,1.77,1ZM210.24,278l-2.43-5-2.2,5Z"/><path class="cls-1" d="M240,282.26h-2.77L231.77,278a.81.81,0,0,1-.28-.7c0-.63.46-.94,1.37-.94l3.25,0c1.08,0,1.62-.37,1.62-1.12v-1.28c0-.79-.61-1.18-1.83-1.18h-4.59v9.53h-2.23V271.1h7.47c2.27,0,3.41.8,3.41,2.38v1.94a2,2,0,0,1-.89,1.67,3.82,3.82,0,0,1-2.32.64h-2.56Z"/><path class="cls-1" d="M264.83,277.49h-7.25v1.89c0,.84.64,1.25,1.94,1.25h5.74v1.63h-6.34a4.83,4.83,0,0,1-2.56-.57,2,2,0,0,1-1-1.79v-6.3a2.14,2.14,0,0,1,.9-1.82,4,4,0,0,1,2.47-.67h6.54v1.63H259.5q-1.92,0-1.92,1.23v1.91h7.25Z"/><path class="cls-1" d="M5.59,244.6a3,3,0,0,1-2.43,1.18,3,3,0,0,1-2.24-.92A3,3,0,0,1,0,242.63a2.72,2.72,0,0,1,.66-1.91l16-21.5a8.39,8.39,0,0,1,3-2.47,8.67,8.67,0,0,1,7.69-.1A7.63,7.63,0,0,1,30.18,219l16,21.37a4.24,4.24,0,0,1,.66,1,2.79,2.79,0,0,1,.26,1.22,3.14,3.14,0,0,1-3.15,3.15,2.94,2.94,0,0,1-2.5-1.24L26.11,224.08A15.52,15.52,0,0,0,25,222.93a2.15,2.15,0,0,0-1.42-.62,2.12,2.12,0,0,0-1.41.62A9.27,9.27,0,0,0,21,224.08Z"/><path class="cls-1" d="M99.56,237q1.84,1.28,3.75,2.79a6,6,0,0,1,1.25,1.22,2.6,2.6,0,0,1,.53,1.61,3.16,3.16,0,0,1-3.16,3.15,3.5,3.5,0,0,1-2.24-.92c-1.79-1.31-3.64-2.58-5.52-3.81a50.61,50.61,0,0,0-5.89-3.29,36.08,36.08,0,0,0-6.34-2.3,27,27,0,0,0-6.84-.86H62a2.41,2.41,0,0,0-1.44.79A2.36,2.36,0,0,0,60,237v5.59a3,3,0,0,1-.95,2.23,3.06,3.06,0,0,1-2.2.92,3.14,3.14,0,0,1-3.16-3.15v-6.32a7.91,7.91,0,0,1,.63-3.12A8.16,8.16,0,0,1,56,230.63a7.52,7.52,0,0,1,2.5-1.71,7.86,7.86,0,0,1,3.16-.63H96.47a2.49,2.49,0,0,0,1.74-.69,2.24,2.24,0,0,0,.76-1.74,2.27,2.27,0,0,0-.76-1.71,2.44,2.44,0,0,0-1.74-.72H56.82a3.16,3.16,0,1,1,0-6.32H96.21a8.68,8.68,0,0,1,3.45.69,9.27,9.27,0,0,1,2.83,1.88,8.86,8.86,0,0,1,1.91,2.76,8.82,8.82,0,0,1,0,6.84,8.86,8.86,0,0,1-1.91,2.76,9.45,9.45,0,0,1-2.83,1.88,8.85,8.85,0,0,1-3.45.68H96Q97.72,235.73,99.56,237Z"/><path class="cls-1" d="M111.66,231.45a16.14,16.14,0,0,1,.82-5,15.4,15.4,0,0,1,2.4-4.6,13.16,13.16,0,0,1,3.82-3.39,9.77,9.77,0,0,1,5.06-1.32H162.1a3.16,3.16,0,1,1,0,6.32h-37a7.31,7.31,0,0,0-3.71.82,6.82,6.82,0,0,0-2.24,2,7.09,7.09,0,0,0-1.12,2.6,11.8,11.8,0,0,0,0,5.2,7,7,0,0,0,1.12,2.59,6.85,6.85,0,0,0,2.24,2,7.31,7.31,0,0,0,3.71.82h37a3.14,3.14,0,0,1,3.16,3.16,3.14,3.14,0,0,1-3.16,3.15h-39a8.87,8.87,0,0,1-4.8-1.31,12.68,12.68,0,0,1-3.58-3.39,16,16,0,0,1-2.27-4.63A16.85,16.85,0,0,1,111.66,231.45Z"/><path class="cls-1" d="M177.42,244.6a3.14,3.14,0,0,1-5.59-2,2.72,2.72,0,0,1,.66-1.91l16-21.5a8.39,8.39,0,0,1,3-2.47,8.67,8.67,0,0,1,7.69-.1A7.67,7.67,0,0,1,202,219l16,21.37a4.53,4.53,0,0,1,.65,1,2.79,2.79,0,0,1,.27,1.22,3.14,3.14,0,0,1-3.16,3.15,2.94,2.94,0,0,1-2.5-1.24l-15.32-20.46a15.52,15.52,0,0,0-1.15-1.15,1.92,1.92,0,0,0-2.83,0,8.43,8.43,0,0,0-1.08,1.15Z"/><path class="cls-1" d="M271.2,218a3,3,0,0,1,2.23-.92,3.14,3.14,0,0,1,3.16,3.16v19.14a6.19,6.19,0,0,1-1.81,4.53,6.06,6.06,0,0,1-4.5,1.84,6.14,6.14,0,0,1-1.81-.26,5.89,5.89,0,0,1-1.61-.72l-30.12-18.41c-.84-.49-1.53-.87-2.07-1.16a3.18,3.18,0,0,0-1.35-.42c-.66,0-1.08.41-1.25,1.25a18.39,18.39,0,0,0-.26,3.61v13a3.16,3.16,0,1,1-6.32,0V223.49A6.25,6.25,0,0,1,227.3,219a6.36,6.36,0,0,1,6.31-1.57,5.89,5.89,0,0,1,1.61.72l30.12,18.41c.84.49,1.53.87,2.08,1.15a3,3,0,0,0,1.34.43c.66,0,1.08-.42,1.25-1.25a18.28,18.28,0,0,0,.27-3.62V220.27A3,3,0,0,1,271.2,218Z"/><path class="cls-1" d="M283.16,220.27a3.14,3.14,0,0,1,3.16-3.16H333a3.16,3.16,0,1,1,0,6.32H286.32a3.14,3.14,0,0,1-3.16-3.16Zm8,25.51a7.21,7.21,0,0,1-2.9-.62,8.3,8.3,0,0,1-2.56-1.74,9.15,9.15,0,0,1-1.84-2.7,8.32,8.32,0,0,1-.73-3.55v-5.92a2.52,2.52,0,0,1,1-2.37,6.66,6.66,0,0,1,3.19-.59H331.5a3.16,3.16,0,1,1,0,6.31h-42v3.23A1.47,1.47,0,0,0,290,239a2.13,2.13,0,0,0,1.48.49H333a3.16,3.16,0,0,1,2.23,5.39,3,3,0,0,1-2.23.92Z"/><path class="cls-2" d="M168.05,6.21A85.16,85.16,0,1,1,82.89,91.37,85.16,85.16,0,0,1,168.05,6.21m0-6.21a91.37,91.37,0,1,0,91.37,91.37A91.48,91.48,0,0,0,168.05,0Z"/><path class="cls-3" d="M220.72,110.54a10.07,10.07,0,0,0-5.48-5.4l-1.12,2.76L213,110.66a4.1,4.1,0,1,1-5.33,2.26,4,4,0,0,1,2.2-2.23,4.09,4.09,0,0,1,3.13,0l1.12-2.76,1.12-2.76a9.88,9.88,0,0,0-4.55-.7l-5-11.78-11.77-4.77a26,26,0,0,0-3.68-9.57l7.38-1.83,8.73,5.25A10,10,0,0,0,210.89,93a10,10,0,0,0,15.22-8l20.75-5.15c-.32-2-.69-3.93-1.15-5.85l-21,5.22a10,10,0,0,0-15.12-2.45l-10.95-6.6-12.55,3.11a26.24,26.24,0,0,0-8.57-5.4l5.09-6,10.15-.88a10.05,10.05,0,1,0,17.85-9L224.2,35.68c-1.41-1.4-2.88-2.75-4.39-4L206,48a10.07,10.07,0,0,0-11.6,2.79l2.28,1.92-2.28-1.92a10.12,10.12,0,0,0-2.07,4.11L179.61,56,171,66.24c-.33,0-.66-.08-1-.1a25.94,25.94,0,0,0-8.88.84l.59-8.27L169.43,52a9.94,9.94,0,0,0,4.78,1.61h0a10.06,10.06,0,0,0,4.37-19.4l1.47-20.74c-2-.3-3.92-.55-5.93-.7h0l-1.49,21a10.07,10.07,0,0,0-7.74,9.08l3,.21-3-.21a10.16,10.16,0,0,0,.74,4.54L156,55.83l-1,13.7a26.29,26.29,0,0,0-7.35,6.26l-4.55-7.3,2.31-9.92a9.88,9.88,0,0,0,4.8-1.51,10.06,10.06,0,0,0-7.86-18.26L131.51,21.46c-1.77.91-3.5,1.9-5.19,2.94l11,17.56a10,10,0,0,0,2.34,15.13l-2.89,12.46,7.4,11.88a26.42,26.42,0,0,0-2.29,8.92c0,.1,0,.2,0,.3l-8.08-3.28-4-9.38a10.05,10.05,0,0,0-10.23-17.08,9.93,9.93,0,0,0-3.86,2.89L97,56.21c-.9,1.76-1.72,3.58-2.49,5.42l19,7.69a10.06,10.06,0,0,0,6.24,10.17l1.12-2.77L121.92,74a4.09,4.09,0,0,1-.06-7.56,4.09,4.09,0,1,1,3.19,7.54,4,4,0,0,1-3.13,0l-1.12,2.76-1.12,2.77a10,10,0,0,0,4.55.69l5,11.79,13,5.27a26.13,26.13,0,0,0,3.41,8.82l-8.35,2.07-8.73-5.25A10.06,10.06,0,0,0,116.42,90.5a10.07,10.07,0,0,0-7.62,9.18l-19.56,4.85c.31,2,.66,3.94,1.11,5.87l19.89-4.93a10.09,10.09,0,0,0,11,4.55l-.71-2.89.72,2.89a10.07,10.07,0,0,0,4.08-2.11l11,6.6,13.41-3.32v0a26.07,26.07,0,0,0,8,5.32l-5.35,6.37-10.15.87a10.05,10.05,0,1,0-17.85,9l-13.09,15.56c1.39,1.42,2.83,2.8,4.33,4.12l13.32-15.84a10,10,0,0,0,11.59-2.8,9.88,9.88,0,0,0,2.07-4.11l12.75-1.1,1.14-1.35,2.12-17.06a20.22,20.22,0,1,1,18.93,0l.79,6.39a26.49,26.49,0,0,0,9.51-6.88l4,6.47-2.3,9.92a10,10,0,0,0-9.15,7.28l1,7.8c.06.09.1.19.16.28a10,10,0,0,0,11.08,4.41l11.16,17.9c1.78-.89,3.52-1.86,5.23-2.88l-11.33-18.17a10,10,0,0,0,.92-11.9,10,10,0,0,0-3.26-3.23l2.89-12.47-6.74-10.81a26,26,0,0,0,2.77-9.82l7,2.81,4,9.38a10.06,10.06,0,0,0,10.23,17.09,10.11,10.11,0,0,0,3.86-2.89l19.8,8c.91-1.76,1.73-3.57,2.51-5.41l-20.07-8.14A10,10,0,0,0,220.72,110.54Zm-8.15-28.29a4.05,4.05,0,0,1,2.52-1.86,4.09,4.09,0,0,1,4.49,6.08,4.1,4.1,0,0,1-5.62,1.4,4.09,4.09,0,0,1-1.39-5.62ZM199,54.67a4.11,4.11,0,0,1,5.77-.5,4.08,4.08,0,0,1,.5,5.77A4.1,4.1,0,0,1,199,54.67ZM172.24,40.53A4.09,4.09,0,0,1,179,43.91a4.11,4.11,0,0,1-1.41,2.8,4.09,4.09,0,0,1-6.76-3.38h0A4,4,0,0,1,172.24,40.53ZM141.4,50.7a4.1,4.1,0,0,1,1.31-5.64,4.08,4.08,0,0,1,5.64,1.31,4.09,4.09,0,0,1-4.4,6.15A4.1,4.1,0,0,1,141.4,50.7Zm-19.05,51.67a4.1,4.1,0,0,1-5.62,1.4,4.12,4.12,0,0,1-1.86-2.52,4,4,0,0,1,.47-3.1,4,4,0,0,1,2.52-1.86,4.06,4.06,0,0,1,3.1.46,4.09,4.09,0,0,1,1.39,5.62ZM135.93,130a4,4,0,0,1-2.78,1.45,4.14,4.14,0,0,1-3-1,4.09,4.09,0,0,1-.49-5.77,4,4,0,0,1,2.78-1.44,4.08,4.08,0,0,1,4.43,3.73A4,4,0,0,1,135.93,130Zm57.58,4A4,4,0,0,1,194,137a4.11,4.11,0,1,1-.52-3.1Z"/><path class="cls-4" d="M183.89,92.26a15.85,15.85,0,1,0-20.95,15l-5.85,55.38a3.25,3.25,0,0,0,2.81,3.64,65.14,65.14,0,0,0,16.27,0,3.26,3.26,0,0,0,2.82-3.64l-5.85-55.38A15.84,15.84,0,0,0,183.89,92.26Z"/></g></g></svg>