<svg xmlns="http://www.w3.org/2000/svg" xmlns:xlink="http://www.w3.org/1999/xlink" viewBox="0 0 182.74 182.74"><defs><style>.cls-1{fill:url(#linear-gradient);}.cls-2{fill:url(#linear-gradient-2);}.cls-3{fill:url(#linear-gradient-3);}</style><linearGradient id="linear-gradient" x1="46.52" y1="22.75" x2="152.39" y2="184.74" gradientUnits="userSpaceOnUse"><stop offset="0" stop-color="#00bdd1"/><stop offset="0.47" stop-color="#3841b8"/><stop offset="0.89" stop-color="#7f0cdb"/></linearGradient><linearGradient id="linear-gradient-2" x1="46.01" y1="23.08" x2="151.87" y2="185.08" xlink:href="#linear-gradient"/><linearGradient id="linear-gradient-3" x1="32.46" y1="31.93" x2="138.33" y2="193.93" xlink:href="#linear-gradient"/></defs><g id="Layer_2" data-name="Layer 2"><g id="Layer_1-2" data-name="Layer 1"><path class="cls-1" d="M91.37,6.21A85.16,85.16,0,1,1,6.21,91.37,85.16,85.16,0,0,1,91.37,6.21m0-6.21a91.37,91.37,0,1,0,91.37,91.37A91.48,91.48,0,0,0,91.37,0Z"/><path class="cls-2" d="M144,110.54a10,10,0,0,0-5.48-5.4l-1.12,2.76-1.12,2.76a4,4,0,0,1,2.23,2.2,4.09,4.09,0,1,1-7.54,3.19,4.09,4.09,0,0,1,2.18-5.36,4.09,4.09,0,0,1,3.13,0l1.12-2.76,1.12-2.76a9.88,9.88,0,0,0-4.55-.7l-5-11.78-11.77-4.77a26.18,26.18,0,0,0-3.67-9.57L121,76.49l8.73,5.25a10.05,10.05,0,1,0,19.74,3.2l20.75-5.15c-.32-2-.69-3.93-1.15-5.85l-21,5.22a10.07,10.07,0,0,0-11-4.56,10.11,10.11,0,0,0-4.09,2.11l-10.95-6.6-12.55,3.11a26.24,26.24,0,0,0-8.57-5.4l5.09-6,10.15-.88A9.89,9.89,0,0,0,119,65,10.06,10.06,0,0,0,133.9,51.87l13.62-16.19c-1.41-1.4-2.88-2.75-4.39-4L129.34,48a10.07,10.07,0,0,0-11.6,2.79L120,52.75l-2.28-1.92a10.12,10.12,0,0,0-2.07,4.11L102.93,56l-8.58,10.2c-.33,0-.66-.08-1-.1a26,26,0,0,0-8.88.84l.59-8.27L92.75,52a9.94,9.94,0,0,0,4.78,1.61h0a10.06,10.06,0,0,0,4.37-19.4l1.47-20.74c-2-.3-3.92-.55-5.92-.7h0L96,33.83a10.07,10.07,0,0,0-7.74,9.08l3,.21-3-.21A10,10,0,0,0,89,47.45l-9.67,8.38-1,13.7A26.43,26.43,0,0,0,71,75.79l-4.55-7.3,2.31-9.92a9.88,9.88,0,0,0,4.8-1.51A10.06,10.06,0,0,0,65.65,38.8L54.83,21.46c-1.77.91-3.49,1.9-5.19,2.94L60.59,42a10,10,0,0,0,2.34,15.13L60,69.55l7.4,11.88a26.42,26.42,0,0,0-2.29,8.92c0,.1,0,.2,0,.3l-8.08-3.28-4-9.38A10.05,10.05,0,0,0,42.86,60.91,9.93,9.93,0,0,0,39,63.8L20.27,56.21c-.9,1.76-1.72,3.58-2.49,5.42l19,7.69A10.06,10.06,0,0,0,43,79.49l1.12-2.77L45.24,74a4.09,4.09,0,0,1-.06-7.56,4.08,4.08,0,0,1,5.37,2.17A4.09,4.09,0,0,1,45.24,74l-1.12,2.76L43,79.49a10,10,0,0,0,4.55.69l5,11.79,13,5.27A26.13,26.13,0,0,0,69,106.06l-8.35,2.07-8.73-5.25A10.06,10.06,0,0,0,39.74,90.5a10,10,0,0,0-7.61,9.18l-19.56,4.85c.3,2,.66,3.94,1.1,5.87l19.89-4.93a10.09,10.09,0,0,0,11,4.55l-.72-2.89.72,2.89a10,10,0,0,0,4.08-2.11l11,6.6L73,111.19v0a26.07,26.07,0,0,0,8,5.32l-5.35,6.37-10.15.87a10.05,10.05,0,1,0-17.85,9L34.57,148.31c1.39,1.42,2.83,2.8,4.33,4.12l13.32-15.84a10.05,10.05,0,0,0,11.6-2.8,10,10,0,0,0,2.06-4.11l12.75-1.1,1.14-1.35,2.12-17.06a20.22,20.22,0,1,1,18.93,0l.79,6.39a26.49,26.49,0,0,0,9.51-6.88l4,6.47-2.31,9.92a10,10,0,0,0-9.15,7.28l1,7.8c.06.09.1.19.16.28a10,10,0,0,0,11.08,4.41l11.16,17.9c1.78-.89,3.52-1.86,5.23-2.88L121,142.67a10,10,0,0,0,.92-11.9,10,10,0,0,0-3.26-3.23l2.89-12.47-6.74-10.81a26,26,0,0,0,2.77-9.82l7,2.81,4,9.38a10.06,10.06,0,1,0,14.09,14.2l19.8,8c.91-1.76,1.74-3.57,2.51-5.41L144.8,115.3A10,10,0,0,0,144,110.54Zm-8.15-28.29a4.05,4.05,0,0,1,2.52-1.86,4.09,4.09,0,0,1,4.49,6.08,4.1,4.1,0,0,1-5.62,1.4,4.12,4.12,0,0,1-1.86-2.52A4.05,4.05,0,0,1,135.89,82.25ZM122.3,54.67a4.11,4.11,0,0,1,5.77-.5,4.08,4.08,0,0,1,.5,5.77,4.1,4.1,0,0,1-6.27-5.27ZM95.56,40.53a4.09,4.09,0,0,1,6.77,3.38,4.14,4.14,0,0,1-1.4,2.8,4.09,4.09,0,0,1-6.77-3.38h0A4,4,0,0,1,95.56,40.53ZM64.72,50.7A4.1,4.1,0,0,1,66,45.06a4.08,4.08,0,0,1,5.64,1.31,4.09,4.09,0,0,1-4.4,6.15A4.1,4.1,0,0,1,64.72,50.7Zm-19,51.67a4.1,4.1,0,0,1-5.62,1.4,4.12,4.12,0,0,1-1.86-2.52,4.1,4.1,0,0,1,6.09-4.5,4.09,4.09,0,0,1,1.39,5.62ZM59.25,130a4,4,0,0,1-2.78,1.45A4.09,4.09,0,0,1,53,124.68,4.09,4.09,0,1,1,59.25,130Zm57.59,4a4.09,4.09,0,1,1-2.55-1.82A4.13,4.13,0,0,1,116.84,133.92Z"/><path class="cls-3" d="M107.21,92.26a15.85,15.85,0,1,0-20.95,15l-5.85,55.38a3.25,3.25,0,0,0,2.81,3.64,65.22,65.22,0,0,0,16.28,0,3.25,3.25,0,0,0,2.81-3.64l-5.85-55.38A15.84,15.84,0,0,0,107.21,92.26Z"/></g></g></svg>