<?xml version="1.0" standalone="no"?>
<!DOCTYPE svg PUBLIC "-//W3C//DTD SVG 20010904//EN"
 "http://www.w3.org/TR/2001/REC-SVG-20010904/DTD/svg10.dtd">
<svg version="1.0" xmlns="http://www.w3.org/2000/svg"
 width="732.000000pt" height="732.000000pt" viewBox="0 0 732.000000 732.000000"
 preserveAspectRatio="xMidYMid meet">
<metadata>
Created by potrace 1.14, written by Peter Selinger 2001-2017
</metadata>
<g transform="translate(0.000000,732.000000) scale(0.100000,-0.100000)"
fill="#000000" stroke="none">
<path d="M3517 7314 c-1 -1 -52 -4 -113 -8 -61 -4 -121 -8 -135 -10 -13 -3
-46 -7 -74 -11 -27 -3 -66 -9 -85 -11 -19 -3 -69 -11 -110 -19 -41 -8 -90 -17
-109 -20 -19 -3 -37 -8 -41 -10 -3 -2 -17 -6 -31 -9 -95 -20 -184 -45 -326
-92 -585 -196 -1129 -554 -1558 -1028 -140 -154 -331 -417 -442 -611 -186
-322 -338 -717 -409 -1060 -16 -78 -44 -240 -49 -290 -4 -33 -8 -71 -11 -85
-23 -141 -23 -664 1 -790 1 -8 6 -42 10 -75 32 -281 125 -630 249 -930 394
-952 1201 -1711 2176 -2049 119 -42 350 -107 420 -120 14 -2 36 -7 50 -10 247
-58 673 -85 990 -64 102 7 319 34 350 43 8 2 33 7 55 10 55 7 61 9 205 43 484
116 953 342 1360 655 104 81 134 106 238 202 452 416 788 927 989 1500 13 39
26 77 28 85 2 8 16 55 30 103 25 86 68 265 80 337 3 19 8 49 11 65 7 39 12 78
20 140 3 28 7 61 10 75 23 146 23 644 0 780 -3 14 -7 50 -10 80 -4 30 -8 66
-11 80 -2 14 -9 54 -15 90 -38 228 -126 528 -223 760 -247 597 -677 1148
-1191 1527 -56 41 -109 81 -119 89 -9 8 -19 14 -21 14 -3 0 -33 19 -67 41
-234 156 -539 302 -844 404 -102 34 -385 107 -465 120 -19 3 -46 7 -60 10 -14
2 -43 7 -65 10 -22 3 -51 7 -65 10 -14 2 -55 7 -91 10 -37 3 -91 8 -120 11
-49 6 -406 13 -412 8z m391 -258 c57 -4 111 -9 120 -10 14 -3 74 -11 147 -21
41 -5 116 -18 145 -25 19 -5 51 -12 70 -15 103 -18 358 -95 510 -154 81 -32
83 -33 235 -105 354 -170 647 -378 930 -661 301 -301 525 -624 701 -1012 89
-196 196 -522 219 -663 3 -19 10 -48 15 -65 5 -16 12 -50 15 -75 2 -25 7 -56
10 -69 2 -13 7 -49 11 -80 3 -31 8 -58 9 -61 7 -11 19 -270 19 -390 -1 -188
-13 -352 -39 -515 -114 -711 -436 -1350 -936 -1859 -71 -72 -161 -158 -200
-191 -40 -33 -77 -65 -83 -70 -25 -23 -206 -155 -276 -201 -369 -242 -776
-410 -1200 -493 -131 -26 -152 -29 -220 -37 -30 -3 -64 -8 -75 -10 -119 -23
-602 -22 -755 1 -14 2 -47 6 -75 10 -27 3 -88 13 -135 21 -47 8 -98 18 -115
20 -23 5 -168 42 -260 68 -80 22 -116 34 -215 71 -217 82 -375 158 -578 279
-112 67 -309 205 -393 276 -29 25 -71 60 -94 79 -86 74 -305 302 -393 409
-299 367 -511 776 -640 1232 -31 109 -66 262 -78 340 -3 25 -8 52 -9 60 -1 8
-6 40 -10 70 -4 30 -9 63 -10 72 -23 119 -23 614 -1 748 4 23 12 77 22 160 2
19 9 58 14 85 6 28 12 59 14 71 17 88 64 262 103 379 167 507 441 952 818
1330 181 181 218 212 490 413 23 17 203 130 245 154 317 181 791 350 1105 394
17 2 39 6 50 8 18 4 64 10 160 21 17 2 77 7 135 11 58 3 106 7 107 8 5 4 283
-2 371 -8z"/>
<path d="M3899 6779 c0 -24 -4 -79 -13 -199 -3 -36 -8 -108 -12 -160 -3 -52
-7 -111 -9 -130 -2 -19 -7 -87 -11 -150 -6 -101 -9 -144 -13 -172 -1 -5 -7 -8
-13 -8 -27 0 -129 -60 -173 -101 -99 -93 -146 -254 -111 -384 16 -60 16 -60
-8 -80 -13 -11 -100 -86 -193 -167 l-170 -148 -2 -52 c-1 -29 -4 -69 -6 -88
-2 -19 -7 -87 -11 -150 -4 -63 -8 -128 -10 -145 -1 -16 -2 -47 -3 -67 -1 -34
-7 -40 -78 -91 -43 -30 -110 -87 -150 -127 l-71 -72 -24 38 c-14 22 -54 86
-90 144 l-66 106 19 73 c10 41 30 130 45 197 l28 123 40 6 c94 15 167 53 233
123 151 160 142 420 -20 569 -84 78 -181 112 -306 107 l-76 -3 -93 152 c-51
84 -148 239 -214 344 l-120 193 -46 -27 c-132 -74 -162 -95 -155 -106 14 -25
188 -304 218 -352 17 -27 65 -104 105 -170 41 -66 80 -127 87 -136 19 -22 17
-30 -21 -93 -99 -164 -60 -388 88 -512 34 -28 43 -42 40 -59 -2 -13 -27 -120
-54 -239 -28 -119 -50 -222 -50 -230 0 -8 65 -118 144 -244 l145 -231 -31 -88
c-17 -48 -38 -132 -47 -185 l-16 -96 -155 63 c-180 73 -150 37 -264 309 l-55
130 22 20 c155 144 167 401 27 560 -145 165 -423 179 -577 30 -19 -19 -39 -34
-44 -34 -5 0 -71 25 -147 56 -75 31 -153 62 -172 70 -19 7 -118 47 -220 89
-102 42 -189 77 -195 78 -10 2 -89 -152 -100 -196 -6 -22 -2 -26 37 -40 24 -8
193 -76 377 -151 184 -75 335 -136 335 -136 1 0 0 -19 0 -42 -2 -84 44 -198
108 -267 66 -71 175 -121 271 -125 53 -2 55 -4 81 -66 133 -321 171 -402 196
-415 14 -8 57 -25 95 -40 39 -15 84 -33 100 -40 17 -7 90 -37 164 -67 l134
-54 22 -79 c22 -81 51 -155 91 -232 l23 -41 -165 -41 -165 -40 -167 100 c-92
56 -170 106 -173 111 -4 6 -3 25 1 44 25 109 -31 266 -124 352 -160 148 -402
144 -557 -9 -54 -53 -104 -147 -115 -214 -3 -22 -9 -43 -12 -46 -5 -4 -461
-119 -492 -124 -3 0 -67 -16 -144 -35 l-138 -35 6 -45 c3 -25 8 -56 11 -70 12
-59 19 -96 20 -105 0 -11 35 -12 75 -2 14 3 34 8 45 11 11 2 139 35 285 71
146 37 272 68 280 70 8 2 36 8 63 14 l47 11 63 -63 c70 -71 132 -104 225 -120
100 -18 189 3 298 68 l30 18 216 -130 216 -131 164 40 c89 22 170 41 178 44 8
2 57 14 108 26 l92 21 33 -30 c47 -44 134 -105 197 -138 30 -16 61 -33 67 -38
9 -7 -10 -36 -70 -106 -45 -53 -91 -108 -103 -123 -18 -23 -30 -27 -100 -33
-43 -4 -92 -8 -109 -10 -16 -2 -73 -7 -125 -10 l-95 -7 -18 39 c-37 82 -133
163 -234 198 -63 22 -183 22 -247 0 -167 -57 -277 -207 -277 -375 1 -83 7
-113 36 -177 19 -42 21 -55 12 -65 -7 -7 -60 -69 -117 -138 -58 -69 -107 -127
-110 -130 -7 -6 -250 -298 -270 -324 -14 -17 -8 -24 69 -97 47 -44 87 -79 91
-79 4 0 125 141 270 314 l263 313 50 -15 c33 -9 77 -13 132 -10 151 8 272 91
341 234 l35 74 47 1 c26 0 56 2 67 4 11 2 57 7 103 10 45 3 102 7 125 10 23 2
69 7 102 10 49 5 64 11 82 33 12 15 23 36 23 47 1 11 3 27 4 35 2 8 6 44 10
80 9 76 13 108 26 215 6 44 13 98 16 120 2 22 7 51 9 65 2 14 7 52 10 86 l6
61 -53 34 c-236 151 -384 427 -373 699 3 98 28 221 55 280 77 167 177 288 310
374 398 259 929 121 1152 -299 99 -187 119 -407 57 -612 -53 -172 -181 -341
-333 -438 l-58 -37 6 -61 c7 -64 15 -127 21 -162 2 -11 4 -23 4 -27 1 -11 67
20 146 70 76 48 164 119 207 166 l26 30 54 -85 c113 -175 109 -165 92 -239 -9
-36 -17 -72 -19 -80 -2 -8 -15 -66 -29 -129 -14 -62 -26 -115 -26 -116 0 -1
-20 -5 -44 -7 -65 -8 -164 -58 -219 -111 -27 -27 -61 -75 -78 -110 -29 -62
-30 -66 -14 -167 2 -14 6 -50 10 -80 14 -143 20 -158 89 -224 42 -40 137 -90
191 -101 29 -6 129 -7 168 -2 17 2 79 -89 216 -313 5 -8 56 -89 113 -180 56
-90 106 -173 110 -182 13 -33 36 -30 115 12 142 75 154 21 -104 435 -181 289
-223 362 -214 375 81 112 104 256 62 379 -29 84 -72 142 -148 199 l-22 17 21
85 c11 47 37 159 58 248 l38 164 -101 161 c-55 89 -115 185 -134 214 l-34 51
17 39 c17 39 70 192 72 206 2 16 15 103 18 121 2 10 5 20 7 23 2 2 63 -20 135
-49 86 -35 134 -60 141 -73 14 -27 40 -88 100 -232 l52 -123 -41 -42 c-88 -92
-125 -238 -95 -372 10 -47 54 -128 90 -167 83 -91 178 -132 305 -132 106 0
192 32 264 97 l47 44 87 -35 c48 -19 101 -40 117 -48 17 -7 100 -41 185 -75
85 -34 169 -68 185 -75 37 -17 208 -85 213 -85 7 0 104 211 99 216 -3 3 -182
77 -398 165 -216 87 -393 160 -395 161 -1 2 -4 30 -8 63 -3 33 -9 74 -14 90
-45 151 -188 266 -349 281 l-68 6 -99 234 c-54 128 -103 235 -110 237 -340
138 -443 181 -453 190 -6 7 -14 28 -17 47 -12 77 -73 233 -119 302 l-18 27 33
9 c18 5 85 21 148 37 l115 27 170 -102 c94 -57 171 -104 172 -104 1 -1 -2 -29
-6 -63 -19 -159 70 -328 211 -399 228 -116 494 -8 571 231 9 28 17 61 19 74 3
23 13 28 133 58 72 18 139 35 150 38 11 2 58 14 105 26 47 11 92 22 100 24 8
2 53 13 100 25 47 12 92 23 100 25 42 8 133 34 137 39 6 5 -32 224 -40 232 -1
2 -19 -1 -38 -6 -18 -6 -207 -53 -418 -105 l-384 -95 -15 22 c-9 13 -34 40
-56 61 -130 124 -337 144 -489 47 l-49 -31 -218 132 -218 131 -85 -21 c-46
-12 -93 -23 -103 -26 -11 -2 -85 -20 -165 -41 l-146 -37 -64 52 c-65 53 -161
112 -236 145 l-42 18 64 77 c107 130 139 162 165 166 14 2 68 6 120 10 117 8
186 14 225 20 27 4 32 0 47 -33 61 -140 246 -241 406 -220 268 35 426 304 326
555 l-26 64 25 32 c14 18 114 138 223 267 268 317 284 336 284 346 1 13 -163
163 -172 158 -4 -3 -54 -60 -110 -127 -56 -67 -105 -124 -108 -127 -3 -3 -50
-59 -105 -125 -55 -66 -102 -122 -105 -125 -3 -3 -18 -21 -34 -40 -16 -19 -42
-50 -58 -68 l-29 -33 -62 14 c-178 40 -352 -34 -442 -188 -13 -22 -27 -52 -30
-68 -10 -40 -12 -41 -150 -52 -44 -3 -96 -8 -115 -10 -19 -2 -76 -6 -126 -9
-120 -9 -136 -12 -154 -35 -8 -11 -82 -101 -165 -200 l-150 -179 -105 0 c-110
-1 -182 -7 -240 -23 -43 -11 -63 -12 -56 -1 2 4 7 59 11 122 4 63 9 126 10
140 2 14 4 32 4 41 1 9 54 61 119 116 64 55 133 114 152 131 l34 30 39 -20
c156 -79 356 -43 474 85 94 102 132 250 98 382 -24 92 -116 207 -200 251 -45
23 -44 16 -31 179 8 115 14 191 20 285 3 41 8 120 12 175 4 55 8 125 8 155 l1
54 -40 7 c-22 4 -75 11 -117 14 -77 7 -78 7 -79 -16z m98 -1061 c74 -32 115
-118 93 -192 -24 -80 -102 -126 -188 -112 -49 8 -83 34 -109 85 -27 54 -24
108 10 159 42 64 125 90 194 60z m-1187 -203 c104 -54 112 -207 14 -274 -155
-106 -337 100 -211 238 51 55 131 70 197 36z m2322 -372 c54 -48 66 -123 32
-192 -55 -110 -196 -122 -272 -23 -35 46 -38 136 -6 178 48 65 111 89 182 68
24 -7 53 -21 64 -31z m-3182 -495 c99 -51 118 -179 37 -255 -55 -53 -138 -61
-202 -19 -98 64 -89 218 15 273 54 29 94 29 150 1z m3718 -575 c55 -36 82 -97
71 -159 -15 -81 -66 -126 -149 -132 -45 -3 -61 0 -90 20 -59 40 -82 84 -78
146 11 127 140 193 246 125z m-3886 -639 c149 -96 38 -336 -132 -285 -162 48
-159 261 5 312 33 11 88 -1 127 -27z m3698 -561 c60 -35 92 -121 70 -186 -35
-104 -162 -146 -246 -82 -45 34 -66 77 -67 137 -1 86 78 158 168 152 24 -1 58
-11 75 -21z m-3134 -522 c65 -51 84 -149 42 -211 -39 -57 -72 -75 -138 -75
-66 0 -99 18 -137 75 -52 75 -14 189 77 232 32 16 126 3 156 -21z m2282 -348
c127 -82 76 -276 -76 -291 -56 -5 -91 10 -136 57 -41 43 -48 122 -16 179 46
82 148 106 228 55z"/>
<path d="M3525 4244 c-92 -20 -216 -82 -287 -144 -84 -75 -172 -218 -194 -315
-50 -219 4 -433 147 -589 55 -60 161 -135 222 -157 l39 -14 -6 -76 c-4 -42 -9
-88 -11 -100 -2 -13 -6 -55 -10 -94 -7 -83 -14 -148 -20 -192 -3 -18 -7 -63
-10 -100 -4 -37 -8 -79 -10 -93 -2 -14 -7 -56 -10 -95 -4 -38 -8 -81 -11 -95
-2 -14 -6 -54 -9 -90 -3 -36 -10 -101 -15 -145 -5 -44 -12 -109 -15 -145 -3
-36 -8 -81 -10 -100 -2 -19 -7 -60 -10 -90 -3 -30 -8 -71 -10 -90 -2 -19 -7
-64 -10 -100 -4 -36 -8 -81 -11 -100 -2 -19 -6 -60 -9 -90 -3 -30 -8 -71 -10
-90 -2 -19 -7 -62 -11 -95 -3 -33 -8 -73 -9 -90 -2 -16 -7 -68 -10 -115 -6
-75 -4 -89 14 -117 29 -46 64 -60 181 -71 109 -10 451 -8 530 4 64 9 109 32
132 68 19 31 20 79 4 211 -2 17 -7 64 -11 105 -3 41 -8 82 -10 90 -2 8 -7 49
-10 90 -4 41 -8 86 -10 100 -2 14 -6 59 -10 100 -4 41 -8 82 -10 90 -2 8 -6
47 -10 85 -3 39 -8 86 -10 105 -3 19 -7 62 -10 95 -3 33 -8 76 -10 95 -3 19
-7 62 -10 95 -3 33 -8 76 -10 95 -9 76 -33 300 -40 380 -5 52 -11 105 -20 175
-2 17 -7 66 -10 110 -4 44 -9 89 -11 99 -2 10 -6 55 -9 100 l-6 81 83 39 c95
45 200 143 257 240 44 73 80 197 84 288 15 303 -185 574 -478 647 -76 19 -210
21 -290 5z"/>
</g>
</svg>
